<mxfile host="app.diagrams.net" modified="2023-05-23T16:07:50.592Z" agent="Mozilla/5.0 (Windows NT 10.0; Win64; x64) AppleWebKit/537.36 (KHTML, like Gecko) Chrome/113.0.0.0 Safari/537.36" etag="-SCucd_BpEuOG_-CZ7qh" version="21.3.2" type="device">
  <diagram id="pbOJgXOL5BV4dpU_iane" name="Page-1">
    <mxGraphModel dx="934" dy="515" grid="1" gridSize="10" guides="1" tooltips="1" connect="1" arrows="1" fold="1" page="1" pageScale="1" pageWidth="827" pageHeight="1169" math="0" shadow="0">
      <root>
        <mxCell id="0" />
        <mxCell id="1" parent="0" />
        <mxCell id="kGQKNDCrvxkRR9i95Aic-10" style="edgeStyle=orthogonalEdgeStyle;rounded=0;orthogonalLoop=1;jettySize=auto;html=1;exitX=0.5;exitY=1;exitDx=0;exitDy=0;" parent="1" edge="1">
          <mxGeometry relative="1" as="geometry">
            <mxPoint x="325" y="350" as="sourcePoint" />
            <mxPoint x="325" y="350" as="targetPoint" />
          </mxGeometry>
        </mxCell>
        <mxCell id="kGQKNDCrvxkRR9i95Aic-25" value="User" style="rounded=1;whiteSpace=wrap;html=1;arcSize=40;fontColor=#000000;fillColor=#ffffc0;strokeColor=#ff0000;" parent="1" vertex="1">
          <mxGeometry x="10" y="100" width="120" height="40" as="geometry" />
        </mxCell>
        <mxCell id="kGQKNDCrvxkRR9i95Aic-26" value="" style="edgeStyle=orthogonalEdgeStyle;html=1;verticalAlign=bottom;endArrow=open;endSize=8;strokeColor=#ff0000;rounded=0;" parent="1" source="kGQKNDCrvxkRR9i95Aic-25" edge="1">
          <mxGeometry relative="1" as="geometry">
            <mxPoint x="70" y="3260" as="targetPoint" />
            <Array as="points">
              <mxPoint x="70" y="515" />
              <mxPoint x="70" y="515" />
            </Array>
          </mxGeometry>
        </mxCell>
        <mxCell id="kGQKNDCrvxkRR9i95Aic-27" value="User Terminal Service" style="rounded=1;whiteSpace=wrap;html=1;arcSize=40;fontColor=#000000;fillColor=#ffffc0;strokeColor=#ff0000;" parent="1" vertex="1">
          <mxGeometry x="200" y="100" width="140" height="40" as="geometry" />
        </mxCell>
        <mxCell id="kGQKNDCrvxkRR9i95Aic-28" value="" style="edgeStyle=orthogonalEdgeStyle;html=1;verticalAlign=bottom;endArrow=open;endSize=8;strokeColor=#ff0000;rounded=0;exitX=0.421;exitY=1.05;exitDx=0;exitDy=0;exitPerimeter=0;" parent="1" source="kGQKNDCrvxkRR9i95Aic-27" edge="1">
          <mxGeometry relative="1" as="geometry">
            <mxPoint x="260" y="3250" as="targetPoint" />
            <mxPoint x="260" y="330" as="sourcePoint" />
            <Array as="points">
              <mxPoint x="259" y="360" />
              <mxPoint x="260" y="360" />
            </Array>
          </mxGeometry>
        </mxCell>
        <mxCell id="kGQKNDCrvxkRR9i95Aic-32" value="" style="html=1;points=[];perimeter=orthogonalPerimeter;outlineConnect=0;targetShapes=umlLifeline;portConstraint=eastwest;newEdgeStyle={&quot;edgeStyle&quot;:&quot;elbowEdgeStyle&quot;,&quot;elbow&quot;:&quot;vertical&quot;,&quot;curved&quot;:0,&quot;rounded&quot;:0};" parent="1" vertex="1">
          <mxGeometry x="60" y="260" width="10" height="530" as="geometry" />
        </mxCell>
        <mxCell id="kGQKNDCrvxkRR9i95Aic-33" value="1. Authentication interface" style="html=1;verticalAlign=bottom;endArrow=block;edgeStyle=elbowEdgeStyle;elbow=vertical;curved=0;rounded=0;" parent="1" target="kGQKNDCrvxkRR9i95Aic-32" edge="1">
          <mxGeometry relative="1" as="geometry">
            <mxPoint x="260" y="260" as="sourcePoint" />
          </mxGeometry>
        </mxCell>
        <mxCell id="kGQKNDCrvxkRR9i95Aic-34" value="2.. Pobieranie danych" style="html=1;verticalAlign=bottom;endArrow=open;dashed=1;endSize=8;edgeStyle=elbowEdgeStyle;elbow=vertical;curved=0;rounded=0;" parent="1" edge="1">
          <mxGeometry y="10" relative="1" as="geometry">
            <mxPoint x="260" y="340" as="targetPoint" />
            <mxPoint x="70" y="340" as="sourcePoint" />
            <mxPoint as="offset" />
          </mxGeometry>
        </mxCell>
        <mxCell id="kGQKNDCrvxkRR9i95Aic-37" value="" style="endArrow=classic;html=1;rounded=0;" parent="1" edge="1">
          <mxGeometry relative="1" as="geometry">
            <mxPoint x="260" y="360" as="sourcePoint" />
            <mxPoint x="260" y="450" as="targetPoint" />
            <Array as="points">
              <mxPoint x="180" y="360" />
              <mxPoint x="180" y="450" />
            </Array>
          </mxGeometry>
        </mxCell>
        <mxCell id="kGQKNDCrvxkRR9i95Aic-38" value="3. Data validation" style="edgeLabel;resizable=0;html=1;align=center;verticalAlign=middle;" parent="kGQKNDCrvxkRR9i95Aic-37" connectable="0" vertex="1">
          <mxGeometry relative="1" as="geometry" />
        </mxCell>
        <mxCell id="kGQKNDCrvxkRR9i95Aic-39" value="Banking Service" style="rounded=1;whiteSpace=wrap;html=1;arcSize=40;fontColor=#000000;fillColor=#ffffc0;strokeColor=#ff0000;" parent="1" vertex="1">
          <mxGeometry x="414" y="100" width="120" height="40" as="geometry" />
        </mxCell>
        <mxCell id="kGQKNDCrvxkRR9i95Aic-40" value="" style="edgeStyle=orthogonalEdgeStyle;html=1;verticalAlign=bottom;endArrow=open;endSize=8;strokeColor=#ff0000;rounded=0;" parent="1" source="kGQKNDCrvxkRR9i95Aic-39" edge="1">
          <mxGeometry relative="1" as="geometry">
            <mxPoint x="471" y="3240" as="targetPoint" />
            <Array as="points">
              <mxPoint x="471" y="230" />
              <mxPoint x="471" y="230" />
            </Array>
          </mxGeometry>
        </mxCell>
        <mxCell id="kGQKNDCrvxkRR9i95Aic-42" value="" style="html=1;points=[];perimeter=orthogonalPerimeter;outlineConnect=0;targetShapes=umlLifeline;portConstraint=eastwest;newEdgeStyle={&quot;edgeStyle&quot;:&quot;elbowEdgeStyle&quot;,&quot;elbow&quot;:&quot;vertical&quot;,&quot;curved&quot;:0,&quot;rounded&quot;:0};" parent="1" vertex="1">
          <mxGeometry x="460" y="260" width="10" height="600" as="geometry" />
        </mxCell>
        <mxCell id="kGQKNDCrvxkRR9i95Aic-43" value="4. Request&amp;nbsp; Account" style="html=1;verticalAlign=bottom;endArrow=block;edgeStyle=elbowEdgeStyle;elbow=vertical;curved=0;rounded=0;" parent="1" target="kGQKNDCrvxkRR9i95Aic-42" edge="1">
          <mxGeometry relative="1" as="geometry">
            <mxPoint x="260" y="510" as="sourcePoint" />
            <Array as="points">
              <mxPoint x="440" y="510" />
            </Array>
          </mxGeometry>
        </mxCell>
        <mxCell id="kGQKNDCrvxkRR9i95Aic-44" value="return the requested Account" style="html=1;verticalAlign=bottom;endArrow=open;dashed=1;endSize=8;edgeStyle=elbowEdgeStyle;elbow=vertical;curved=0;rounded=0;" parent="1" source="kGQKNDCrvxkRR9i95Aic-42" edge="1">
          <mxGeometry x="-0.0909" y="-10" relative="1" as="geometry">
            <mxPoint x="260" y="570" as="targetPoint" />
            <Array as="points">
              <mxPoint x="300" y="570" />
            </Array>
            <mxPoint as="offset" />
          </mxGeometry>
        </mxCell>
        <mxCell id="kGQKNDCrvxkRR9i95Aic-45" value="" style="endArrow=classic;html=1;rounded=0;" parent="1" edge="1">
          <mxGeometry relative="1" as="geometry">
            <mxPoint x="260" y="610" as="sourcePoint" />
            <mxPoint x="260" y="700" as="targetPoint" />
            <Array as="points">
              <mxPoint x="174" y="610" />
              <mxPoint x="174" y="700" />
            </Array>
          </mxGeometry>
        </mxCell>
        <mxCell id="kGQKNDCrvxkRR9i95Aic-46" value="5. User Authentication" style="edgeLabel;resizable=0;html=1;align=center;verticalAlign=middle;" parent="kGQKNDCrvxkRR9i95Aic-45" connectable="0" vertex="1">
          <mxGeometry relative="1" as="geometry" />
        </mxCell>
        <mxCell id="kGQKNDCrvxkRR9i95Aic-47" value="8. Request User" style="html=1;verticalAlign=bottom;endArrow=block;edgeStyle=elbowEdgeStyle;elbow=vertical;curved=0;rounded=0;" parent="1" edge="1">
          <mxGeometry relative="1" as="geometry">
            <mxPoint x="260" y="900" as="sourcePoint" />
            <mxPoint x="460" y="900" as="targetPoint" />
            <Array as="points">
              <mxPoint x="440" y="900" />
            </Array>
          </mxGeometry>
        </mxCell>
        <mxCell id="kGQKNDCrvxkRR9i95Aic-48" value="9. Display the balance, ask the amount (UI)" style="html=1;verticalAlign=bottom;endArrow=open;dashed=1;endSize=8;edgeStyle=elbowEdgeStyle;elbow=vertical;curved=0;rounded=0;" parent="1" edge="1">
          <mxGeometry y="-10" relative="1" as="geometry">
            <mxPoint x="70" y="1560" as="targetPoint" />
            <mxPoint x="270" y="1560" as="sourcePoint" />
            <Array as="points">
              <mxPoint x="110" y="1560" />
            </Array>
            <mxPoint as="offset" />
          </mxGeometry>
        </mxCell>
        <mxCell id="kGQKNDCrvxkRR9i95Aic-49" value="6. User Interface" style="html=1;verticalAlign=bottom;endArrow=block;edgeStyle=elbowEdgeStyle;elbow=vertical;curved=0;rounded=0;" parent="1" edge="1">
          <mxGeometry relative="1" as="geometry">
            <mxPoint x="260" y="730" as="sourcePoint" />
            <mxPoint x="70" y="730" as="targetPoint" />
          </mxGeometry>
        </mxCell>
        <mxCell id="kGQKNDCrvxkRR9i95Aic-50" value="7. User chooses an action" style="html=1;verticalAlign=bottom;endArrow=open;dashed=1;endSize=8;edgeStyle=elbowEdgeStyle;elbow=vertical;curved=0;rounded=0;" parent="1" source="kGQKNDCrvxkRR9i95Aic-32" edge="1">
          <mxGeometry y="10" relative="1" as="geometry">
            <mxPoint x="260" y="770" as="targetPoint" />
            <mxPoint x="80" y="770" as="sourcePoint" />
            <mxPoint as="offset" />
          </mxGeometry>
        </mxCell>
        <mxCell id="kGQKNDCrvxkRR9i95Aic-52" value="" style="shape=link;html=1;rounded=0;" parent="1" target="kGQKNDCrvxkRR9i95Aic-42" edge="1">
          <mxGeometry width="100" relative="1" as="geometry">
            <mxPoint x="80" y="790" as="sourcePoint" />
            <mxPoint x="220" y="790" as="targetPoint" />
          </mxGeometry>
        </mxCell>
        <mxCell id="kGQKNDCrvxkRR9i95Aic-53" value="Exit" style="text;html=1;align=center;verticalAlign=middle;resizable=0;points=[];autosize=1;strokeColor=none;fillColor=none;" parent="1" vertex="1">
          <mxGeometry x="80" y="810" width="40" height="30" as="geometry" />
        </mxCell>
        <mxCell id="kGQKNDCrvxkRR9i95Aic-54" value="" style="endArrow=classic;html=1;rounded=0;" parent="1" edge="1">
          <mxGeometry relative="1" as="geometry">
            <mxPoint x="260" y="810" as="sourcePoint" />
            <mxPoint x="260" y="840" as="targetPoint" />
            <Array as="points">
              <mxPoint x="180" y="810" />
              <mxPoint x="180" y="820" />
              <mxPoint x="180" y="840" />
              <mxPoint x="220" y="840" />
            </Array>
          </mxGeometry>
        </mxCell>
        <mxCell id="kGQKNDCrvxkRR9i95Aic-55" value="8. Exit" style="edgeLabel;resizable=0;html=1;align=center;verticalAlign=middle;" parent="kGQKNDCrvxkRR9i95Aic-54" connectable="0" vertex="1">
          <mxGeometry relative="1" as="geometry" />
        </mxCell>
        <mxCell id="kGQKNDCrvxkRR9i95Aic-56" value="Show Balance" style="text;html=1;align=center;verticalAlign=middle;resizable=0;points=[];autosize=1;strokeColor=none;fillColor=none;" parent="1" vertex="1">
          <mxGeometry x="75" y="870" width="100" height="30" as="geometry" />
        </mxCell>
        <mxCell id="kGQKNDCrvxkRR9i95Aic-57" value="" style="shape=link;html=1;rounded=0;" parent="1" edge="1">
          <mxGeometry width="100" relative="1" as="geometry">
            <mxPoint x="80" y="860" as="sourcePoint" />
            <mxPoint x="460" y="860" as="targetPoint" />
          </mxGeometry>
        </mxCell>
        <mxCell id="kGQKNDCrvxkRR9i95Aic-58" value="9. Show Balance" style="html=1;verticalAlign=bottom;endArrow=open;dashed=1;endSize=8;edgeStyle=elbowEdgeStyle;elbow=vertical;curved=0;rounded=0;" parent="1" edge="1">
          <mxGeometry y="-10" relative="1" as="geometry">
            <mxPoint x="70" y="971" as="targetPoint" />
            <mxPoint x="260" y="971" as="sourcePoint" />
            <Array as="points">
              <mxPoint x="100" y="971" />
            </Array>
            <mxPoint as="offset" />
          </mxGeometry>
        </mxCell>
        <mxCell id="kGQKNDCrvxkRR9i95Aic-59" value="" style="shape=link;html=1;rounded=0;" parent="1" edge="1">
          <mxGeometry width="100" relative="1" as="geometry">
            <mxPoint x="72.5" y="1071" as="sourcePoint" />
            <mxPoint x="467.5" y="1071" as="targetPoint" />
          </mxGeometry>
        </mxCell>
        <mxCell id="kGQKNDCrvxkRR9i95Aic-60" value="10. User input" style="html=1;verticalAlign=bottom;endArrow=open;dashed=1;endSize=8;edgeStyle=elbowEdgeStyle;elbow=vertical;curved=0;rounded=0;" parent="1" edge="1">
          <mxGeometry y="10" relative="1" as="geometry">
            <mxPoint x="265" y="1010" as="targetPoint" />
            <mxPoint x="75" y="1010" as="sourcePoint" />
            <mxPoint as="offset" />
          </mxGeometry>
        </mxCell>
        <mxCell id="kGQKNDCrvxkRR9i95Aic-61" value="11. Go to point 6." style="html=1;verticalAlign=bottom;endArrow=open;dashed=1;endSize=8;edgeStyle=elbowEdgeStyle;elbow=vertical;curved=0;rounded=0;" parent="1" edge="1">
          <mxGeometry y="-10" relative="1" as="geometry">
            <mxPoint x="75" y="1040" as="targetPoint" />
            <mxPoint x="265" y="1040" as="sourcePoint" />
            <Array as="points">
              <mxPoint x="105" y="1040" />
            </Array>
            <mxPoint as="offset" />
          </mxGeometry>
        </mxCell>
        <mxCell id="kGQKNDCrvxkRR9i95Aic-62" value="" style="shape=link;html=1;rounded=0;" parent="1" edge="1">
          <mxGeometry width="100" relative="1" as="geometry">
            <mxPoint x="70" y="1430" as="sourcePoint" />
            <mxPoint x="465" y="1430" as="targetPoint" />
          </mxGeometry>
        </mxCell>
        <mxCell id="kGQKNDCrvxkRR9i95Aic-63" value="Transfer to own account" style="text;html=1;align=center;verticalAlign=middle;resizable=0;points=[];autosize=1;strokeColor=none;fillColor=none;" parent="1" vertex="1">
          <mxGeometry x="70" y="1080" width="150" height="30" as="geometry" />
        </mxCell>
        <mxCell id="kGQKNDCrvxkRR9i95Aic-64" value="10.User update" style="html=1;verticalAlign=bottom;endArrow=block;edgeStyle=elbowEdgeStyle;elbow=vertical;curved=0;rounded=0;" parent="1" edge="1">
          <mxGeometry y="10" relative="1" as="geometry">
            <mxPoint x="260" y="1230" as="sourcePoint" />
            <mxPoint x="460" y="1230" as="targetPoint" />
            <Array as="points">
              <mxPoint x="440" y="1230" />
            </Array>
            <mxPoint as="offset" />
          </mxGeometry>
        </mxCell>
        <mxCell id="kGQKNDCrvxkRR9i95Aic-65" value="return User" style="html=1;verticalAlign=bottom;endArrow=open;dashed=1;endSize=8;edgeStyle=elbowEdgeStyle;elbow=vertical;curved=0;rounded=0;" parent="1" edge="1">
          <mxGeometry y="-10" relative="1" as="geometry">
            <mxPoint x="270" y="940" as="targetPoint" />
            <mxPoint x="470" y="940" as="sourcePoint" />
            <Array as="points">
              <mxPoint x="310" y="940" />
            </Array>
            <mxPoint as="offset" />
          </mxGeometry>
        </mxCell>
        <mxCell id="kGQKNDCrvxkRR9i95Aic-66" value="9.&amp;nbsp; inputs the amount" style="html=1;verticalAlign=bottom;endArrow=block;edgeStyle=elbowEdgeStyle;elbow=vertical;curved=0;rounded=0;" parent="1" edge="1">
          <mxGeometry relative="1" as="geometry">
            <mxPoint x="80" y="1160" as="sourcePoint" />
            <mxPoint x="260" y="1160" as="targetPoint" />
            <Array as="points">
              <mxPoint x="240" y="1160" />
            </Array>
          </mxGeometry>
        </mxCell>
        <mxCell id="kGQKNDCrvxkRR9i95Aic-67" value="" style="endArrow=classic;html=1;rounded=0;" parent="1" edge="1">
          <mxGeometry relative="1" as="geometry">
            <mxPoint x="470" y="1240" as="sourcePoint" />
            <mxPoint x="470" y="1280" as="targetPoint" />
            <Array as="points">
              <mxPoint x="430" y="1240" />
              <mxPoint x="384" y="1240" />
              <mxPoint x="384" y="1280" />
              <mxPoint x="430" y="1280" />
            </Array>
          </mxGeometry>
        </mxCell>
        <mxCell id="kGQKNDCrvxkRR9i95Aic-68" value="11. Updates the account balance" style="edgeLabel;resizable=0;html=1;align=center;verticalAlign=middle;" parent="kGQKNDCrvxkRR9i95Aic-67" connectable="0" vertex="1">
          <mxGeometry relative="1" as="geometry" />
        </mxCell>
        <mxCell id="kGQKNDCrvxkRR9i95Aic-69" value="15. Go to point 6." style="html=1;verticalAlign=bottom;endArrow=open;dashed=1;endSize=8;edgeStyle=elbowEdgeStyle;elbow=vertical;curved=0;rounded=0;" parent="1" edge="1">
          <mxGeometry y="-10" relative="1" as="geometry">
            <mxPoint x="70" y="1410" as="targetPoint" />
            <mxPoint x="260" y="1410" as="sourcePoint" />
            <Array as="points">
              <mxPoint x="100" y="1410" />
            </Array>
            <mxPoint as="offset" />
          </mxGeometry>
        </mxCell>
        <mxCell id="kGQKNDCrvxkRR9i95Aic-70" value="13. Show result" style="html=1;verticalAlign=bottom;endArrow=open;dashed=1;endSize=8;edgeStyle=elbowEdgeStyle;elbow=vertical;curved=0;rounded=0;" parent="1" edge="1">
          <mxGeometry y="-10" relative="1" as="geometry">
            <mxPoint x="75" y="1340" as="targetPoint" />
            <mxPoint x="265" y="1340" as="sourcePoint" />
            <Array as="points">
              <mxPoint x="105" y="1340" />
            </Array>
            <mxPoint as="offset" />
          </mxGeometry>
        </mxCell>
        <mxCell id="kGQKNDCrvxkRR9i95Aic-71" value="12. Returns operation result" style="html=1;verticalAlign=bottom;endArrow=open;dashed=1;endSize=8;edgeStyle=elbowEdgeStyle;elbow=vertical;curved=0;rounded=0;" parent="1" edge="1">
          <mxGeometry y="-10" relative="1" as="geometry">
            <mxPoint x="270" y="1320" as="targetPoint" />
            <mxPoint x="460" y="1320" as="sourcePoint" />
            <Array as="points">
              <mxPoint x="300" y="1320" />
            </Array>
            <mxPoint as="offset" />
          </mxGeometry>
        </mxCell>
        <mxCell id="kGQKNDCrvxkRR9i95Aic-73" value="14. User input" style="html=1;verticalAlign=bottom;endArrow=open;dashed=1;endSize=8;edgeStyle=elbowEdgeStyle;elbow=vertical;curved=0;rounded=0;" parent="1" edge="1">
          <mxGeometry y="10" relative="1" as="geometry">
            <mxPoint x="260" y="1370" as="targetPoint" />
            <mxPoint x="70" y="1370" as="sourcePoint" />
            <mxPoint as="offset" />
          </mxGeometry>
        </mxCell>
        <mxCell id="kGQKNDCrvxkRR9i95Aic-74" value="Cash withdrawl" style="text;html=1;align=center;verticalAlign=middle;resizable=0;points=[];autosize=1;strokeColor=none;fillColor=none;" parent="1" vertex="1">
          <mxGeometry x="70" y="1440" width="100" height="30" as="geometry" />
        </mxCell>
        <mxCell id="kGQKNDCrvxkRR9i95Aic-75" value="8. ask the amount" style="html=1;verticalAlign=bottom;endArrow=open;dashed=1;endSize=8;edgeStyle=elbowEdgeStyle;elbow=vertical;curved=0;rounded=0;" parent="1" edge="1">
          <mxGeometry y="-10" relative="1" as="geometry">
            <mxPoint x="70" y="1130" as="targetPoint" />
            <mxPoint x="270" y="1130" as="sourcePoint" />
            <Array as="points">
              <mxPoint x="110" y="1130" />
            </Array>
            <mxPoint as="offset" />
          </mxGeometry>
        </mxCell>
        <mxCell id="kGQKNDCrvxkRR9i95Aic-77" value="9.&amp;nbsp; inputs the amount" style="html=1;verticalAlign=bottom;endArrow=block;edgeStyle=elbowEdgeStyle;elbow=vertical;curved=0;rounded=0;" parent="1" edge="1">
          <mxGeometry relative="1" as="geometry">
            <mxPoint x="80" y="1610" as="sourcePoint" />
            <mxPoint x="260" y="1610" as="targetPoint" />
            <Array as="points">
              <mxPoint x="240" y="1610" />
            </Array>
          </mxGeometry>
        </mxCell>
        <mxCell id="kGQKNDCrvxkRR9i95Aic-78" value="8. Request User" style="html=1;verticalAlign=bottom;endArrow=block;edgeStyle=elbowEdgeStyle;elbow=vertical;curved=0;rounded=0;" parent="1" edge="1">
          <mxGeometry y="10" relative="1" as="geometry">
            <mxPoint x="270" y="1470" as="sourcePoint" />
            <mxPoint x="470" y="1470" as="targetPoint" />
            <Array as="points">
              <mxPoint x="450" y="1470" />
            </Array>
            <mxPoint as="offset" />
          </mxGeometry>
        </mxCell>
        <mxCell id="kGQKNDCrvxkRR9i95Aic-79" value="" style="endArrow=classic;html=1;rounded=0;" parent="1" edge="1">
          <mxGeometry relative="1" as="geometry">
            <mxPoint x="470" y="1720" as="sourcePoint" />
            <mxPoint x="470" y="1770" as="targetPoint" />
            <Array as="points">
              <mxPoint x="384" y="1720" />
              <mxPoint x="384" y="1770" />
              <mxPoint x="430" y="1770" />
            </Array>
          </mxGeometry>
        </mxCell>
        <mxCell id="kGQKNDCrvxkRR9i95Aic-80" value="11. Updates or dont update the User" style="edgeLabel;resizable=0;html=1;align=center;verticalAlign=middle;" parent="kGQKNDCrvxkRR9i95Aic-79" connectable="0" vertex="1">
          <mxGeometry relative="1" as="geometry" />
        </mxCell>
        <mxCell id="kGQKNDCrvxkRR9i95Aic-81" value="&amp;nbsp;returns User" style="html=1;verticalAlign=bottom;endArrow=open;dashed=1;endSize=8;edgeStyle=elbowEdgeStyle;elbow=vertical;curved=0;rounded=0;" parent="1" edge="1">
          <mxGeometry y="-10" relative="1" as="geometry">
            <mxPoint x="270" y="1500" as="targetPoint" />
            <mxPoint x="460" y="1500" as="sourcePoint" />
            <Array as="points">
              <mxPoint x="300" y="1500" />
            </Array>
            <mxPoint as="offset" />
          </mxGeometry>
        </mxCell>
        <mxCell id="kGQKNDCrvxkRR9i95Aic-82" value="" style="endArrow=classic;html=1;rounded=0;" parent="1" edge="1">
          <mxGeometry relative="1" as="geometry">
            <mxPoint x="261" y="1630" as="sourcePoint" />
            <mxPoint x="261" y="1680" as="targetPoint" />
            <Array as="points">
              <mxPoint x="175" y="1630" />
              <mxPoint x="175" y="1680" />
              <mxPoint x="221" y="1680" />
            </Array>
          </mxGeometry>
        </mxCell>
        <mxCell id="kGQKNDCrvxkRR9i95Aic-83" value="10. Validate the amount" style="edgeLabel;resizable=0;html=1;align=center;verticalAlign=middle;" parent="kGQKNDCrvxkRR9i95Aic-82" connectable="0" vertex="1">
          <mxGeometry relative="1" as="geometry" />
        </mxCell>
        <mxCell id="kGQKNDCrvxkRR9i95Aic-84" value="13. Display the result and return to 9" style="html=1;verticalAlign=bottom;endArrow=open;dashed=1;endSize=8;edgeStyle=elbowEdgeStyle;elbow=vertical;curved=0;rounded=0;" parent="1" edge="1">
          <mxGeometry x="-0.1579" y="-10" relative="1" as="geometry">
            <mxPoint x="70" y="1860" as="targetPoint" />
            <mxPoint x="260" y="1860" as="sourcePoint" />
            <Array as="points">
              <mxPoint x="100" y="1860" />
            </Array>
            <mxPoint as="offset" />
          </mxGeometry>
        </mxCell>
        <mxCell id="kGQKNDCrvxkRR9i95Aic-85" value="10. Update User" style="html=1;verticalAlign=bottom;endArrow=block;edgeStyle=elbowEdgeStyle;elbow=vertical;curved=0;rounded=0;" parent="1" edge="1">
          <mxGeometry y="10" relative="1" as="geometry">
            <mxPoint x="270" y="1700" as="sourcePoint" />
            <mxPoint x="470" y="1700" as="targetPoint" />
            <Array as="points">
              <mxPoint x="450" y="1700" />
            </Array>
            <mxPoint as="offset" />
          </mxGeometry>
        </mxCell>
        <mxCell id="kGQKNDCrvxkRR9i95Aic-87" value="12. Return error or success" style="html=1;verticalAlign=bottom;endArrow=open;dashed=1;endSize=8;edgeStyle=elbowEdgeStyle;elbow=vertical;curved=0;rounded=0;" parent="1" edge="1">
          <mxGeometry x="-0.0526" y="-10" relative="1" as="geometry">
            <mxPoint x="280" y="1820" as="targetPoint" />
            <mxPoint x="470" y="1820" as="sourcePoint" />
            <Array as="points">
              <mxPoint x="310" y="1820" />
            </Array>
            <mxPoint as="offset" />
          </mxGeometry>
        </mxCell>
        <mxCell id="kGQKNDCrvxkRR9i95Aic-91" value="" style="shape=link;html=1;rounded=0;" parent="1" edge="1">
          <mxGeometry width="100" relative="1" as="geometry">
            <mxPoint x="70" y="1900" as="sourcePoint" />
            <mxPoint x="465" y="1900" as="targetPoint" />
          </mxGeometry>
        </mxCell>
        <mxCell id="kGQKNDCrvxkRR9i95Aic-92" value="Funds Transfer" style="text;html=1;align=center;verticalAlign=middle;resizable=0;points=[];autosize=1;strokeColor=none;fillColor=none;" parent="1" vertex="1">
          <mxGeometry x="70" y="1900" width="100" height="30" as="geometry" />
        </mxCell>
        <mxCell id="kGQKNDCrvxkRR9i95Aic-94" value="" style="endArrow=classic;html=1;rounded=0;" parent="1" edge="1">
          <mxGeometry relative="1" as="geometry">
            <mxPoint x="255" y="2120" as="sourcePoint" />
            <mxPoint x="255" y="2150" as="targetPoint" />
            <Array as="points">
              <mxPoint x="175" y="2120" />
              <mxPoint x="175" y="2150" />
              <mxPoint x="215" y="2150" />
            </Array>
          </mxGeometry>
        </mxCell>
        <mxCell id="kGQKNDCrvxkRR9i95Aic-95" value="10. Recipient and amount validation" style="edgeLabel;resizable=0;html=1;align=center;verticalAlign=middle;" parent="kGQKNDCrvxkRR9i95Aic-94" connectable="0" vertex="1">
          <mxGeometry relative="1" as="geometry" />
        </mxCell>
        <mxCell id="kGQKNDCrvxkRR9i95Aic-96" value="9.&amp;nbsp; inputs the recipent and the amount" style="html=1;verticalAlign=bottom;endArrow=block;edgeStyle=elbowEdgeStyle;elbow=vertical;curved=0;rounded=0;" parent="1" edge="1">
          <mxGeometry relative="1" as="geometry">
            <mxPoint x="80" y="2070" as="sourcePoint" />
            <mxPoint x="260" y="2070" as="targetPoint" />
            <Array as="points">
              <mxPoint x="240" y="2070" />
            </Array>
          </mxGeometry>
        </mxCell>
        <mxCell id="kGQKNDCrvxkRR9i95Aic-106" value="" style="shape=link;html=1;rounded=0;" parent="1" edge="1">
          <mxGeometry width="100" relative="1" as="geometry">
            <mxPoint x="70" y="2420" as="sourcePoint" />
            <mxPoint x="465" y="2420" as="targetPoint" />
          </mxGeometry>
        </mxCell>
        <mxCell id="kGQKNDCrvxkRR9i95Aic-118" value="Banker Terminal Service" style="rounded=1;whiteSpace=wrap;html=1;arcSize=40;fontColor=#000000;fillColor=#ffffc0;strokeColor=#ff0000;" parent="1" vertex="1">
          <mxGeometry x="860" y="100" width="140" height="40" as="geometry" />
        </mxCell>
        <mxCell id="kGQKNDCrvxkRR9i95Aic-121" value="" style="endArrow=classic;html=1;rounded=0;" parent="1" edge="1">
          <mxGeometry relative="1" as="geometry">
            <mxPoint x="261" y="1180" as="sourcePoint" />
            <mxPoint x="260" y="1210" as="targetPoint" />
            <Array as="points">
              <mxPoint x="175" y="1180" />
              <mxPoint x="180" y="1210" />
              <mxPoint x="221" y="1210" />
            </Array>
          </mxGeometry>
        </mxCell>
        <mxCell id="kGQKNDCrvxkRR9i95Aic-122" value="10. Validate the amount" style="edgeLabel;resizable=0;html=1;align=center;verticalAlign=middle;" parent="kGQKNDCrvxkRR9i95Aic-121" connectable="0" vertex="1">
          <mxGeometry relative="1" as="geometry" />
        </mxCell>
        <mxCell id="kGQKNDCrvxkRR9i95Aic-125" value="8. Request User" style="html=1;verticalAlign=bottom;endArrow=block;edgeStyle=elbowEdgeStyle;elbow=vertical;curved=0;rounded=0;" parent="1" edge="1">
          <mxGeometry y="10" relative="1" as="geometry">
            <mxPoint x="270" y="1940" as="sourcePoint" />
            <mxPoint x="470" y="1940" as="targetPoint" />
            <Array as="points">
              <mxPoint x="450" y="1940" />
            </Array>
            <mxPoint as="offset" />
          </mxGeometry>
        </mxCell>
        <mxCell id="kGQKNDCrvxkRR9i95Aic-126" value="&amp;nbsp;returns User" style="html=1;verticalAlign=bottom;endArrow=open;dashed=1;endSize=8;edgeStyle=elbowEdgeStyle;elbow=vertical;curved=0;rounded=0;" parent="1" edge="1">
          <mxGeometry y="-10" relative="1" as="geometry">
            <mxPoint x="270" y="1970" as="targetPoint" />
            <mxPoint x="460" y="1970" as="sourcePoint" />
            <Array as="points">
              <mxPoint x="300" y="1970" />
            </Array>
            <mxPoint as="offset" />
          </mxGeometry>
        </mxCell>
        <mxCell id="kGQKNDCrvxkRR9i95Aic-128" value="9. Display the balance, ask the amount &lt;br&gt;and the recipient&#39;s bank accoiunt&#39;s no (UI)" style="html=1;verticalAlign=bottom;endArrow=open;dashed=1;endSize=8;edgeStyle=elbowEdgeStyle;elbow=vertical;curved=0;rounded=0;" parent="1" edge="1">
          <mxGeometry y="-10" relative="1" as="geometry">
            <mxPoint x="70" y="2020" as="targetPoint" />
            <mxPoint x="270" y="2020" as="sourcePoint" />
            <Array as="points">
              <mxPoint x="110" y="2020" />
            </Array>
            <mxPoint as="offset" />
          </mxGeometry>
        </mxCell>
        <mxCell id="kGQKNDCrvxkRR9i95Aic-129" value="11. Przesylamy od kogo, sume, i do kogo" style="html=1;verticalAlign=bottom;endArrow=block;edgeStyle=elbowEdgeStyle;elbow=vertical;curved=0;rounded=0;" parent="1" edge="1">
          <mxGeometry y="10" relative="1" as="geometry">
            <mxPoint x="270" y="2180" as="sourcePoint" />
            <mxPoint x="470" y="2180" as="targetPoint" />
            <Array as="points">
              <mxPoint x="450" y="2180" />
            </Array>
            <mxPoint as="offset" />
          </mxGeometry>
        </mxCell>
        <mxCell id="kGQKNDCrvxkRR9i95Aic-130" value="13. Return error or success" style="html=1;verticalAlign=bottom;endArrow=open;dashed=1;endSize=8;edgeStyle=elbowEdgeStyle;elbow=vertical;curved=0;rounded=0;" parent="1" edge="1">
          <mxGeometry x="-0.0526" y="-10" relative="1" as="geometry">
            <mxPoint x="270" y="2338" as="targetPoint" />
            <mxPoint x="460" y="2338" as="sourcePoint" />
            <Array as="points">
              <mxPoint x="300" y="2338" />
            </Array>
            <mxPoint as="offset" />
          </mxGeometry>
        </mxCell>
        <mxCell id="kGQKNDCrvxkRR9i95Aic-131" value="14. Display the result and return to 9" style="html=1;verticalAlign=bottom;endArrow=open;dashed=1;endSize=8;edgeStyle=elbowEdgeStyle;elbow=vertical;curved=0;rounded=0;" parent="1" edge="1">
          <mxGeometry x="-0.1579" y="-10" relative="1" as="geometry">
            <mxPoint x="70" y="2390" as="targetPoint" />
            <mxPoint x="260" y="2390" as="sourcePoint" />
            <Array as="points">
              <mxPoint x="100" y="2390" />
            </Array>
            <mxPoint as="offset" />
          </mxGeometry>
        </mxCell>
        <mxCell id="kGQKNDCrvxkRR9i95Aic-132" value="12.&amp;nbsp;&amp;nbsp;" style="endArrow=classic;html=1;rounded=0;" parent="1" edge="1">
          <mxGeometry relative="1" as="geometry">
            <mxPoint x="470" y="2210" as="sourcePoint" />
            <mxPoint x="470" y="2280" as="targetPoint" />
            <Array as="points">
              <mxPoint x="430" y="2210" />
              <mxPoint x="370" y="2210" />
              <mxPoint x="370" y="2280" />
              <mxPoint x="430" y="2280" />
            </Array>
          </mxGeometry>
        </mxCell>
        <mxCell id="kGQKNDCrvxkRR9i95Aic-133" value="10.&amp;nbsp;" style="edgeLabel;resizable=0;html=1;align=center;verticalAlign=middle;" parent="kGQKNDCrvxkRR9i95Aic-132" connectable="0" vertex="1">
          <mxGeometry relative="1" as="geometry" />
        </mxCell>
        <mxCell id="2PVzcU3Bp6ld0V8fKNdN-1" value="" style="edgeStyle=orthogonalEdgeStyle;html=1;verticalAlign=bottom;endArrow=open;endSize=8;strokeColor=#ff0000;rounded=0;exitX=0.5;exitY=1;exitDx=0;exitDy=0;" edge="1" parent="1" source="kGQKNDCrvxkRR9i95Aic-118">
          <mxGeometry relative="1" as="geometry">
            <mxPoint x="929.5" y="3290" as="targetPoint" />
            <Array as="points">
              <mxPoint x="930" y="280" />
            </Array>
            <mxPoint x="929.5" y="190" as="sourcePoint" />
          </mxGeometry>
        </mxCell>
        <mxCell id="2PVzcU3Bp6ld0V8fKNdN-7" value="Admin" style="rounded=1;whiteSpace=wrap;html=1;arcSize=40;fontColor=#000000;fillColor=#ffffc0;strokeColor=#ff0000;" vertex="1" parent="1">
          <mxGeometry x="680" y="100" width="120" height="40" as="geometry" />
        </mxCell>
        <mxCell id="2PVzcU3Bp6ld0V8fKNdN-8" value="" style="edgeStyle=orthogonalEdgeStyle;html=1;verticalAlign=bottom;endArrow=open;endSize=8;strokeColor=#ff0000;rounded=0;" edge="1" parent="1" source="2PVzcU3Bp6ld0V8fKNdN-7">
          <mxGeometry relative="1" as="geometry">
            <mxPoint x="740" y="3260" as="targetPoint" />
            <Array as="points">
              <mxPoint x="740" y="515" />
              <mxPoint x="740" y="515" />
            </Array>
          </mxGeometry>
        </mxCell>
        <mxCell id="2PVzcU3Bp6ld0V8fKNdN-12" value="Banking Service" style="rounded=1;whiteSpace=wrap;html=1;arcSize=40;fontColor=#000000;fillColor=#ffffc0;strokeColor=#ff0000;" vertex="1" parent="1">
          <mxGeometry x="1040" y="100" width="120" height="40" as="geometry" />
        </mxCell>
        <mxCell id="2PVzcU3Bp6ld0V8fKNdN-13" value="" style="edgeStyle=orthogonalEdgeStyle;html=1;verticalAlign=bottom;endArrow=open;endSize=8;strokeColor=#ff0000;rounded=0;" edge="1" parent="1" source="2PVzcU3Bp6ld0V8fKNdN-12">
          <mxGeometry relative="1" as="geometry">
            <mxPoint x="1097" y="3240" as="targetPoint" />
            <Array as="points">
              <mxPoint x="1097" y="230" />
              <mxPoint x="1097" y="230" />
            </Array>
          </mxGeometry>
        </mxCell>
        <mxCell id="2PVzcU3Bp6ld0V8fKNdN-14" value="" style="endArrow=classic;html=1;rounded=0;" edge="1" parent="1">
          <mxGeometry relative="1" as="geometry">
            <mxPoint x="740" y="250" as="sourcePoint" />
            <mxPoint x="930" y="250" as="targetPoint" />
            <Array as="points">
              <mxPoint x="830" y="250" />
            </Array>
          </mxGeometry>
        </mxCell>
        <mxCell id="2PVzcU3Bp6ld0V8fKNdN-15" value="2. select command" style="edgeLabel;resizable=0;html=1;align=center;verticalAlign=middle;" connectable="0" vertex="1" parent="2PVzcU3Bp6ld0V8fKNdN-14">
          <mxGeometry relative="1" as="geometry" />
        </mxCell>
        <mxCell id="2PVzcU3Bp6ld0V8fKNdN-17" value="" style="endArrow=classic;html=1;rounded=0;" edge="1" parent="1">
          <mxGeometry relative="1" as="geometry">
            <mxPoint x="930" y="200" as="sourcePoint" />
            <mxPoint x="740" y="200" as="targetPoint" />
            <Array as="points">
              <mxPoint x="930" y="200" />
            </Array>
          </mxGeometry>
        </mxCell>
        <mxCell id="2PVzcU3Bp6ld0V8fKNdN-18" value="1. show ui" style="edgeLabel;resizable=0;html=1;align=center;verticalAlign=middle;" connectable="0" vertex="1" parent="2PVzcU3Bp6ld0V8fKNdN-17">
          <mxGeometry relative="1" as="geometry">
            <mxPoint x="-5" as="offset" />
          </mxGeometry>
        </mxCell>
        <mxCell id="2PVzcU3Bp6ld0V8fKNdN-19" value="" style="shape=link;html=1;rounded=0;" edge="1" parent="1">
          <mxGeometry width="100" relative="1" as="geometry">
            <mxPoint x="740" y="270" as="sourcePoint" />
            <mxPoint x="1100" y="270" as="targetPoint" />
          </mxGeometry>
        </mxCell>
        <mxCell id="2PVzcU3Bp6ld0V8fKNdN-20" value="Create account" style="text;html=1;align=center;verticalAlign=middle;resizable=0;points=[];autosize=1;strokeColor=none;fillColor=none;" vertex="1" parent="1">
          <mxGeometry x="740" y="278" width="100" height="30" as="geometry" />
        </mxCell>
        <mxCell id="2PVzcU3Bp6ld0V8fKNdN-21" value="" style="endArrow=classic;html=1;rounded=0;" edge="1" parent="1">
          <mxGeometry relative="1" as="geometry">
            <mxPoint x="930" y="320" as="sourcePoint" />
            <mxPoint x="740" y="320" as="targetPoint" />
            <Array as="points">
              <mxPoint x="930" y="320" />
            </Array>
          </mxGeometry>
        </mxCell>
        <mxCell id="2PVzcU3Bp6ld0V8fKNdN-22" value="3. show ui" style="edgeLabel;resizable=0;html=1;align=center;verticalAlign=middle;" connectable="0" vertex="1" parent="2PVzcU3Bp6ld0V8fKNdN-21">
          <mxGeometry relative="1" as="geometry">
            <mxPoint x="-5" as="offset" />
          </mxGeometry>
        </mxCell>
        <mxCell id="2PVzcU3Bp6ld0V8fKNdN-23" value="" style="endArrow=classic;html=1;rounded=0;" edge="1" parent="1">
          <mxGeometry relative="1" as="geometry">
            <mxPoint x="740" y="360" as="sourcePoint" />
            <mxPoint x="930" y="360" as="targetPoint" />
            <Array as="points">
              <mxPoint x="830" y="360" />
            </Array>
          </mxGeometry>
        </mxCell>
        <mxCell id="2PVzcU3Bp6ld0V8fKNdN-24" value="4. Send data" style="edgeLabel;resizable=0;html=1;align=center;verticalAlign=middle;" connectable="0" vertex="1" parent="2PVzcU3Bp6ld0V8fKNdN-23">
          <mxGeometry relative="1" as="geometry" />
        </mxCell>
        <mxCell id="2PVzcU3Bp6ld0V8fKNdN-27" value="" style="endArrow=classic;html=1;rounded=0;" edge="1" parent="1">
          <mxGeometry relative="1" as="geometry">
            <mxPoint x="930" y="410" as="sourcePoint" />
            <mxPoint x="930" y="500" as="targetPoint" />
            <Array as="points">
              <mxPoint x="850" y="410" />
              <mxPoint x="850" y="500" />
            </Array>
          </mxGeometry>
        </mxCell>
        <mxCell id="2PVzcU3Bp6ld0V8fKNdN-28" value="5. Data validation" style="edgeLabel;resizable=0;html=1;align=center;verticalAlign=middle;" connectable="0" vertex="1" parent="2PVzcU3Bp6ld0V8fKNdN-27">
          <mxGeometry relative="1" as="geometry" />
        </mxCell>
        <mxCell id="2PVzcU3Bp6ld0V8fKNdN-29" value="" style="endArrow=classic;html=1;rounded=0;" edge="1" parent="1">
          <mxGeometry relative="1" as="geometry">
            <mxPoint x="930" y="559.5" as="sourcePoint" />
            <mxPoint x="740" y="559.5" as="targetPoint" />
            <Array as="points">
              <mxPoint x="930" y="559.5" />
            </Array>
          </mxGeometry>
        </mxCell>
        <mxCell id="2PVzcU3Bp6ld0V8fKNdN-30" value="Return validation result" style="edgeLabel;resizable=0;html=1;align=center;verticalAlign=middle;" connectable="0" vertex="1" parent="2PVzcU3Bp6ld0V8fKNdN-29">
          <mxGeometry relative="1" as="geometry">
            <mxPoint x="-5" as="offset" />
          </mxGeometry>
        </mxCell>
        <mxCell id="2PVzcU3Bp6ld0V8fKNdN-31" value="" style="endArrow=classic;html=1;rounded=0;" edge="1" parent="1">
          <mxGeometry relative="1" as="geometry">
            <mxPoint x="910" y="559.5" as="sourcePoint" />
            <mxPoint x="1100" y="559.5" as="targetPoint" />
            <Array as="points">
              <mxPoint x="960" y="559.5" />
              <mxPoint x="1000" y="559.5" />
              <mxPoint x="1060" y="559.5" />
            </Array>
          </mxGeometry>
        </mxCell>
        <mxCell id="2PVzcU3Bp6ld0V8fKNdN-32" value="6. Send user data" style="edgeLabel;resizable=0;html=1;align=center;verticalAlign=middle;" connectable="0" vertex="1" parent="2PVzcU3Bp6ld0V8fKNdN-31">
          <mxGeometry relative="1" as="geometry">
            <mxPoint x="-5" as="offset" />
          </mxGeometry>
        </mxCell>
        <mxCell id="2PVzcU3Bp6ld0V8fKNdN-33" value="" style="endArrow=classic;html=1;rounded=0;" edge="1" parent="1">
          <mxGeometry relative="1" as="geometry">
            <mxPoint x="930" y="610" as="sourcePoint" />
            <mxPoint x="740" y="610" as="targetPoint" />
            <Array as="points">
              <mxPoint x="930" y="610" />
            </Array>
          </mxGeometry>
        </mxCell>
        <mxCell id="2PVzcU3Bp6ld0V8fKNdN-34" value=".8. show ui" style="edgeLabel;resizable=0;html=1;align=center;verticalAlign=middle;" connectable="0" vertex="1" parent="2PVzcU3Bp6ld0V8fKNdN-33">
          <mxGeometry relative="1" as="geometry">
            <mxPoint x="-5" as="offset" />
          </mxGeometry>
        </mxCell>
        <mxCell id="2PVzcU3Bp6ld0V8fKNdN-35" value="" style="endArrow=classic;html=1;rounded=0;" edge="1" parent="1">
          <mxGeometry relative="1" as="geometry">
            <mxPoint x="1100" y="600" as="sourcePoint" />
            <mxPoint x="930" y="600" as="targetPoint" />
            <Array as="points">
              <mxPoint x="1100" y="600" />
              <mxPoint x="1000" y="600" />
            </Array>
          </mxGeometry>
        </mxCell>
        <mxCell id="2PVzcU3Bp6ld0V8fKNdN-36" value="7. Send result" style="edgeLabel;resizable=0;html=1;align=center;verticalAlign=middle;" connectable="0" vertex="1" parent="2PVzcU3Bp6ld0V8fKNdN-35">
          <mxGeometry relative="1" as="geometry">
            <mxPoint x="-5" as="offset" />
          </mxGeometry>
        </mxCell>
        <mxCell id="2PVzcU3Bp6ld0V8fKNdN-37" value="" style="shape=link;html=1;rounded=0;" edge="1" parent="1">
          <mxGeometry width="100" relative="1" as="geometry">
            <mxPoint x="740" y="640" as="sourcePoint" />
            <mxPoint x="1100" y="640" as="targetPoint" />
          </mxGeometry>
        </mxCell>
        <mxCell id="2PVzcU3Bp6ld0V8fKNdN-38" value="edit account" style="text;html=1;align=center;verticalAlign=middle;resizable=0;points=[];autosize=1;strokeColor=none;fillColor=none;" vertex="1" parent="1">
          <mxGeometry x="755" y="650" width="90" height="30" as="geometry" />
        </mxCell>
        <mxCell id="2PVzcU3Bp6ld0V8fKNdN-46" value="" style="endArrow=classic;html=1;rounded=0;" edge="1" parent="1">
          <mxGeometry relative="1" as="geometry">
            <mxPoint x="930" y="320" as="sourcePoint" />
            <mxPoint x="740" y="320" as="targetPoint" />
            <Array as="points">
              <mxPoint x="930" y="320" />
            </Array>
          </mxGeometry>
        </mxCell>
        <mxCell id="2PVzcU3Bp6ld0V8fKNdN-47" value="3. show ui" style="edgeLabel;resizable=0;html=1;align=center;verticalAlign=middle;" connectable="0" vertex="1" parent="2PVzcU3Bp6ld0V8fKNdN-46">
          <mxGeometry relative="1" as="geometry">
            <mxPoint x="-5" as="offset" />
          </mxGeometry>
        </mxCell>
        <mxCell id="2PVzcU3Bp6ld0V8fKNdN-48" value="" style="endArrow=classic;html=1;rounded=0;" edge="1" parent="1">
          <mxGeometry relative="1" as="geometry">
            <mxPoint x="740" y="360" as="sourcePoint" />
            <mxPoint x="930" y="360" as="targetPoint" />
            <Array as="points">
              <mxPoint x="830" y="360" />
            </Array>
          </mxGeometry>
        </mxCell>
        <mxCell id="2PVzcU3Bp6ld0V8fKNdN-49" value="4. Send data" style="edgeLabel;resizable=0;html=1;align=center;verticalAlign=middle;" connectable="0" vertex="1" parent="2PVzcU3Bp6ld0V8fKNdN-48">
          <mxGeometry relative="1" as="geometry" />
        </mxCell>
        <mxCell id="2PVzcU3Bp6ld0V8fKNdN-50" value="" style="endArrow=classic;html=1;rounded=0;" edge="1" parent="1">
          <mxGeometry relative="1" as="geometry">
            <mxPoint x="930" y="410" as="sourcePoint" />
            <mxPoint x="930" y="500" as="targetPoint" />
            <Array as="points">
              <mxPoint x="850" y="410" />
              <mxPoint x="850" y="500" />
            </Array>
          </mxGeometry>
        </mxCell>
        <mxCell id="2PVzcU3Bp6ld0V8fKNdN-51" value="5. Data validation" style="edgeLabel;resizable=0;html=1;align=center;verticalAlign=middle;" connectable="0" vertex="1" parent="2PVzcU3Bp6ld0V8fKNdN-50">
          <mxGeometry relative="1" as="geometry" />
        </mxCell>
        <mxCell id="2PVzcU3Bp6ld0V8fKNdN-52" value="" style="endArrow=classic;html=1;rounded=0;" edge="1" parent="1">
          <mxGeometry relative="1" as="geometry">
            <mxPoint x="930" y="1039.5" as="sourcePoint" />
            <mxPoint x="740" y="1039.5" as="targetPoint" />
            <Array as="points">
              <mxPoint x="930" y="1039.5" />
            </Array>
          </mxGeometry>
        </mxCell>
        <mxCell id="2PVzcU3Bp6ld0V8fKNdN-53" value="Return validation result" style="edgeLabel;resizable=0;html=1;align=center;verticalAlign=middle;" connectable="0" vertex="1" parent="2PVzcU3Bp6ld0V8fKNdN-52">
          <mxGeometry relative="1" as="geometry">
            <mxPoint x="-5" as="offset" />
          </mxGeometry>
        </mxCell>
        <mxCell id="2PVzcU3Bp6ld0V8fKNdN-54" value="" style="endArrow=classic;html=1;rounded=0;" edge="1" parent="1">
          <mxGeometry relative="1" as="geometry">
            <mxPoint x="910" y="1039.5" as="sourcePoint" />
            <mxPoint x="1100" y="1039.5" as="targetPoint" />
            <Array as="points">
              <mxPoint x="960" y="1039.5" />
              <mxPoint x="1000" y="1039.5" />
              <mxPoint x="1060" y="1039.5" />
            </Array>
          </mxGeometry>
        </mxCell>
        <mxCell id="2PVzcU3Bp6ld0V8fKNdN-55" value="6. Send user data" style="edgeLabel;resizable=0;html=1;align=center;verticalAlign=middle;" connectable="0" vertex="1" parent="2PVzcU3Bp6ld0V8fKNdN-54">
          <mxGeometry relative="1" as="geometry">
            <mxPoint x="-5" as="offset" />
          </mxGeometry>
        </mxCell>
        <mxCell id="2PVzcU3Bp6ld0V8fKNdN-60" value="" style="endArrow=classic;html=1;rounded=0;" edge="1" parent="1">
          <mxGeometry relative="1" as="geometry">
            <mxPoint x="930" y="690" as="sourcePoint" />
            <mxPoint x="740" y="690" as="targetPoint" />
            <Array as="points">
              <mxPoint x="930" y="690" />
            </Array>
          </mxGeometry>
        </mxCell>
        <mxCell id="2PVzcU3Bp6ld0V8fKNdN-61" value="3. show ui" style="edgeLabel;resizable=0;html=1;align=center;verticalAlign=middle;" connectable="0" vertex="1" parent="2PVzcU3Bp6ld0V8fKNdN-60">
          <mxGeometry relative="1" as="geometry">
            <mxPoint x="-5" as="offset" />
          </mxGeometry>
        </mxCell>
        <mxCell id="2PVzcU3Bp6ld0V8fKNdN-62" value="" style="endArrow=classic;html=1;rounded=0;" edge="1" parent="1">
          <mxGeometry relative="1" as="geometry">
            <mxPoint x="740" y="840" as="sourcePoint" />
            <mxPoint x="930" y="840" as="targetPoint" />
            <Array as="points">
              <mxPoint x="830" y="840" />
            </Array>
          </mxGeometry>
        </mxCell>
        <mxCell id="2PVzcU3Bp6ld0V8fKNdN-63" value="4. Send data" style="edgeLabel;resizable=0;html=1;align=center;verticalAlign=middle;" connectable="0" vertex="1" parent="2PVzcU3Bp6ld0V8fKNdN-62">
          <mxGeometry relative="1" as="geometry" />
        </mxCell>
        <mxCell id="2PVzcU3Bp6ld0V8fKNdN-64" value="" style="endArrow=classic;html=1;rounded=0;" edge="1" parent="1">
          <mxGeometry relative="1" as="geometry">
            <mxPoint x="930" y="890" as="sourcePoint" />
            <mxPoint x="930" y="980" as="targetPoint" />
            <Array as="points">
              <mxPoint x="850" y="890" />
              <mxPoint x="850" y="980" />
            </Array>
          </mxGeometry>
        </mxCell>
        <mxCell id="2PVzcU3Bp6ld0V8fKNdN-65" value="5. Data validation" style="edgeLabel;resizable=0;html=1;align=center;verticalAlign=middle;" connectable="0" vertex="1" parent="2PVzcU3Bp6ld0V8fKNdN-64">
          <mxGeometry relative="1" as="geometry" />
        </mxCell>
        <mxCell id="2PVzcU3Bp6ld0V8fKNdN-77" value="" style="endArrow=classic;html=1;rounded=0;" edge="1" parent="1">
          <mxGeometry relative="1" as="geometry">
            <mxPoint x="740" y="720" as="sourcePoint" />
            <mxPoint x="930" y="720" as="targetPoint" />
            <Array as="points">
              <mxPoint x="830" y="720" />
            </Array>
          </mxGeometry>
        </mxCell>
        <mxCell id="2PVzcU3Bp6ld0V8fKNdN-78" value="4. Send account number" style="edgeLabel;resizable=0;html=1;align=center;verticalAlign=middle;" connectable="0" vertex="1" parent="2PVzcU3Bp6ld0V8fKNdN-77">
          <mxGeometry relative="1" as="geometry" />
        </mxCell>
        <mxCell id="2PVzcU3Bp6ld0V8fKNdN-79" value="" style="endArrow=classic;html=1;rounded=0;" edge="1" parent="1">
          <mxGeometry relative="1" as="geometry">
            <mxPoint x="930" y="750" as="sourcePoint" />
            <mxPoint x="1100" y="750" as="targetPoint" />
            <Array as="points" />
          </mxGeometry>
        </mxCell>
        <mxCell id="2PVzcU3Bp6ld0V8fKNdN-80" value="5.request user data" style="edgeLabel;resizable=0;html=1;align=center;verticalAlign=middle;" connectable="0" vertex="1" parent="2PVzcU3Bp6ld0V8fKNdN-79">
          <mxGeometry relative="1" as="geometry" />
        </mxCell>
        <mxCell id="2PVzcU3Bp6ld0V8fKNdN-81" value="" style="endArrow=classic;html=1;rounded=0;" edge="1" parent="1">
          <mxGeometry relative="1" as="geometry">
            <mxPoint x="1100" y="780" as="sourcePoint" />
            <mxPoint x="930" y="780" as="targetPoint" />
            <Array as="points">
              <mxPoint x="1100" y="780" />
            </Array>
          </mxGeometry>
        </mxCell>
        <mxCell id="2PVzcU3Bp6ld0V8fKNdN-82" value="response user data" style="edgeLabel;resizable=0;html=1;align=center;verticalAlign=middle;" connectable="0" vertex="1" parent="2PVzcU3Bp6ld0V8fKNdN-81">
          <mxGeometry relative="1" as="geometry">
            <mxPoint x="-5" as="offset" />
          </mxGeometry>
        </mxCell>
        <mxCell id="2PVzcU3Bp6ld0V8fKNdN-83" value="" style="endArrow=classic;html=1;rounded=0;" edge="1" parent="1">
          <mxGeometry relative="1" as="geometry">
            <mxPoint x="930" y="800" as="sourcePoint" />
            <mxPoint x="740" y="800" as="targetPoint" />
            <Array as="points">
              <mxPoint x="930" y="800" />
            </Array>
          </mxGeometry>
        </mxCell>
        <mxCell id="2PVzcU3Bp6ld0V8fKNdN-84" value="6. show ui" style="edgeLabel;resizable=0;html=1;align=center;verticalAlign=middle;" connectable="0" vertex="1" parent="2PVzcU3Bp6ld0V8fKNdN-83">
          <mxGeometry relative="1" as="geometry">
            <mxPoint x="-5" as="offset" />
          </mxGeometry>
        </mxCell>
        <mxCell id="2PVzcU3Bp6ld0V8fKNdN-85" value="" style="endArrow=classic;html=1;rounded=0;" edge="1" parent="1">
          <mxGeometry relative="1" as="geometry">
            <mxPoint x="930" y="1099.41" as="sourcePoint" />
            <mxPoint x="740" y="1099.41" as="targetPoint" />
            <Array as="points">
              <mxPoint x="930" y="1099.41" />
            </Array>
          </mxGeometry>
        </mxCell>
        <mxCell id="2PVzcU3Bp6ld0V8fKNdN-86" value=".8. show ui" style="edgeLabel;resizable=0;html=1;align=center;verticalAlign=middle;" connectable="0" vertex="1" parent="2PVzcU3Bp6ld0V8fKNdN-85">
          <mxGeometry relative="1" as="geometry">
            <mxPoint x="-5" as="offset" />
          </mxGeometry>
        </mxCell>
        <mxCell id="2PVzcU3Bp6ld0V8fKNdN-87" value="" style="endArrow=classic;html=1;rounded=0;" edge="1" parent="1">
          <mxGeometry relative="1" as="geometry">
            <mxPoint x="1100" y="1089.41" as="sourcePoint" />
            <mxPoint x="930" y="1089.41" as="targetPoint" />
            <Array as="points">
              <mxPoint x="1100" y="1089.41" />
              <mxPoint x="1000" y="1089.41" />
            </Array>
          </mxGeometry>
        </mxCell>
        <mxCell id="2PVzcU3Bp6ld0V8fKNdN-88" value="7. Send result" style="edgeLabel;resizable=0;html=1;align=center;verticalAlign=middle;" connectable="0" vertex="1" parent="2PVzcU3Bp6ld0V8fKNdN-87">
          <mxGeometry relative="1" as="geometry">
            <mxPoint x="-5" as="offset" />
          </mxGeometry>
        </mxCell>
      </root>
    </mxGraphModel>
  </diagram>
</mxfile>
